<?xml version="1.0" encoding="UTF-8" standalone="no"?>
<!-- Created with Inkscape (http://www.inkscape.org/) -->

<svg
   xmlns:dc="http://purl.org/dc/elements/1.1/"
   xmlns:cc="http://creativecommons.org/ns#"
   xmlns:rdf="http://www.w3.org/1999/02/22-rdf-syntax-ns#"
   xmlns:svg="http://www.w3.org/2000/svg"
   xmlns="http://www.w3.org/2000/svg"
   xmlns:sodipodi="http://sodipodi.sourceforge.net/DTD/sodipodi-0.dtd"
   xmlns:inkscape="http://www.inkscape.org/namespaces/inkscape"
   width="230.20305"
   height="230.40611"
   id="svg3031"
   version="1.1"
   inkscape:version="0.48.5 r10040"
   sodipodi:docname="4kanten.svg">
  <defs
     id="defs3033" />
  <sodipodi:namedview
     id="base"
     pagecolor="#ffffff"
     bordercolor="#666666"
     borderopacity="1.0"
     inkscape:pageopacity="0.0"
     inkscape:pageshadow="2"
     inkscape:zoom="1.4886758"
     inkscape:cx="155.25323"
     inkscape:cy="92.264285"
     inkscape:document-units="px"
     inkscape:current-layer="layer1"
     showgrid="true"
     fit-margin-top="0"
     fit-margin-left="0"
     fit-margin-right="0"
     fit-margin-bottom="0"
     inkscape:window-width="1440"
     inkscape:window-height="837"
     inkscape:window-x="-8"
     inkscape:window-y="-8"
     inkscape:window-maximized="1"
     showguides="true"
     inkscape:guide-bbox="true">
    <inkscape:grid
       type="xygrid"
       id="grid3813"
       empspacing="5"
       visible="true"
       enabled="true"
       snapvisiblegridlinesonly="true"
       originx="-199.79695px"
       originy="-489.79695px" />
    <sodipodi:guide
       orientation="0,1"
       position="139.20305,41.20305"
       id="guide3786" />
    <sodipodi:guide
       orientation="1,0"
       position="230.20305,-84.79695"
       id="guide3788" />
    <sodipodi:guide
       orientation="0,1"
       position="123.20305,77.20305"
       id="guide3790" />
    <sodipodi:guide
       orientation="0,1"
       position="124.20305,103.20305"
       id="guide3792" />
    <sodipodi:guide
       orientation="1,0"
       position="0.20305,-29.79695"
       id="guide3798" />
  </sodipodi:namedview>
  <metadata
     id="metadata3036">
    <rdf:RDF>
      <cc:Work
         rdf:about="">
        <dc:format>image/svg+xml</dc:format>
        <dc:type
           rdf:resource="http://purl.org/dc/dcmitype/StillImage" />
        <dc:title />
      </cc:Work>
    </rdf:RDF>
  </metadata>
  <g
     inkscape:label="Layer 1"
     inkscape:groupmode="layer"
     id="layer1"
     transform="translate(-199.79695,-332.15912)">
    <g
       id="g3813">
      <rect
         y="542.36218"
         x="230"
         height="20.203051"
         width="200"
         id="rect3811"
         style="opacity:1;fill:#000000;stroke:#000000;stroke-width:0;stroke-linecap:square;stroke-miterlimit:4;stroke-opacity:1;stroke-dasharray:none" />
      <rect
         transform="matrix(0,1,-1,0,0,0)"
         y="-430"
         x="332.36218"
         height="20.203051"
         width="200"
         id="rect3811-1"
         style="opacity:1;fill:#000000;stroke:#000000;stroke-width:0;stroke-linecap:square;stroke-miterlimit:4;stroke-opacity:1;stroke-dasharray:none" />
      <rect
         y="332.15912"
         x="200"
         height="20.203051"
         width="200"
         id="rect3811-7"
         style="opacity:1;fill:#000000;stroke:#000000;stroke-width:0;stroke-linecap:square;stroke-miterlimit:4;stroke-opacity:1;stroke-dasharray:none" />
      <rect
         transform="matrix(0,1,-1,0,0,0)"
         y="-220"
         x="362.36218"
         height="20.203051"
         width="200"
         id="rect3811-1-4"
         style="opacity:1;fill:#000000;stroke:#000000;stroke-width:0;stroke-linecap:square;stroke-miterlimit:4;stroke-opacity:1;stroke-dasharray:none" />
      <g
         transform="matrix(1.0970997,0,0,0.84848488,-31.557402,65.751835)"
         id="text2995"
         style="font-size:273.76644897px;font-style:normal;font-variant:normal;font-weight:bold;font-stretch:normal;line-height:125%;letter-spacing:0px;word-spacing:0px;fill:#000000;fill-opacity:1;stroke:none;font-family:Otari-Bold-Limited;-inkscape-font-specification:Otari-Bold-Limited Bold">
        <path
           sodipodi:nodetypes="ccccccccccccccc"
           inkscape:connector-curvature="0"
           id="path3000"
           d="m 319.49141,532.36218 30.11893,-0.10715 0,-42.42857 10.93793,0 0,-30.64285 c -4.41392,0 -7.20818,0 -10.93793,0 l 0,-31.82143 -30.11893,0 0,31.82143 -15.45578,0 27.62969,-91.82143 -30.43478,0 -37.30065,122.46428 55.56152,0 z" />
      </g>
      <g
         id="text3794"
         style="font-size:50.08205032px;font-style:normal;font-variant:normal;font-weight:bold;font-stretch:normal;line-height:125%;letter-spacing:0px;word-spacing:0px;fill:#000000;fill-opacity:1;stroke:none;font-family:Verdana Pro;-inkscape-font-specification:Verdana Pro Bold"
         transform="matrix(1.0371141,0,0,1.2520513,-57.769053,0)">
        <path
           inkscape:connector-curvature="0"
           id="path3801"
           d="m 282.78753,497.0741 -11.51789,0 -10.88209,-14.57466 -2.20087,2.6655 0,11.90916 -9.39039,0 0,-36.4122 9.39039,0 0,16.48208 13.00959,-16.48208 10.88209,0 -14.2323,16.8489 z" />
        <path
           inkscape:connector-curvature="0"
           id="path3803"
           d="m 321.08269,497.0741 -9.70829,0 -2.51877,-7.3607 -13.49868,0 -2.51878,7.3607 -9.46374,0 13.44977,-36.4122 10.80872,0 z m -14.5013,-14.03667 -4.4751,-13.05851 -4.47511,13.05851 z" />
        <path
           inkscape:connector-curvature="0"
           id="path3805"
           d="m 359.47567,497.0741 -9.04803,0 -15.45501,-24.99212 0,24.99212 -8.60785,0 0,-36.4122 11.22445,0 13.27859,20.85937 0,-20.85937 8.60785,0 z" />
        <path
           inkscape:connector-curvature="0"
           id="path3807"
           d="m 397.3062,467.70469 -11.37117,0 0,29.36941 -9.39038,0 0,-29.36941 -11.37117,0 0,-7.04279 32.13272,0 z" />
        <path
           sodipodi:nodetypes="ccccccccccccc"
           inkscape:connector-curvature="0"
           id="path3809"
           d="m 429.2922,497.0741 -26.33709,0 0,-36.4122 26.33709,0 0,7.04279 -16.99562,0 0,6.28471 9.98763,0 0,7.04279 -9.98763,0 0,8.99912 16.99562,0 z" />
        <path
           inkscape:connector-curvature="0"
           id="path3811"
           d="m 470.30177,497.0741 -9.04802,0 -15.45501,-24.99212 0,24.99212 -8.60785,0 0,-36.4122 11.22444,0 13.27859,20.85937 0,-20.85937 8.60785,0 z" />
      </g>
    </g>
  </g>
</svg>
