<?xml version="1.0" encoding="UTF-8" standalone="no"?>
<!-- Created with Inkscape (http://www.inkscape.org/) -->

<svg
   xmlns:dc="http://purl.org/dc/elements/1.1/"
   xmlns:cc="http://creativecommons.org/ns#"
   xmlns:rdf="http://www.w3.org/1999/02/22-rdf-syntax-ns#"
   xmlns:svg="http://www.w3.org/2000/svg"
   xmlns="http://www.w3.org/2000/svg"
   xmlns:sodipodi="http://sodipodi.sourceforge.net/DTD/sodipodi-0.dtd"
   xmlns:inkscape="http://www.inkscape.org/namespaces/inkscape"
   width="250.65359"
   height="45.702942"
   id="svg2"
   version="1.1"
   inkscape:version="0.48.5 r10040"
   sodipodi:docname="title.svg">
  <defs
     id="defs4" />
  <sodipodi:namedview
     id="base"
     pagecolor="#ffffff"
     bordercolor="#666666"
     borderopacity="1.0"
     inkscape:pageopacity="0.0"
     inkscape:pageshadow="2"
     inkscape:zoom="2.8"
     inkscape:cx="224.22185"
     inkscape:cy="49.799386"
     inkscape:document-units="px"
     inkscape:current-layer="layer1"
     showgrid="false"
     inkscape:window-width="1440"
     inkscape:window-height="837"
     inkscape:window-x="-8"
     inkscape:window-y="-8"
     inkscape:window-maximized="1"
     fit-margin-top="0"
     fit-margin-left="0"
     fit-margin-right="0"
     fit-margin-bottom="0"
     showborder="false"
     inkscape:showpageshadow="false"
     showguides="true"
     inkscape:guide-bbox="true">
    <sodipodi:guide
       orientation="0,1"
       position="191.67644,1.9668792e-006"
       id="guide3901" />
  </sodipodi:namedview>
  <metadata
     id="metadata7">
    <rdf:RDF>
      <cc:Work
         rdf:about="">
        <dc:format>image/svg+xml</dc:format>
        <dc:type
           rdf:resource="http://purl.org/dc/dcmitype/StillImage" />
        <dc:title></dc:title>
      </cc:Work>
    </rdf:RDF>
  </metadata>
  <g
     inkscape:label="Layer 1"
     inkscape:groupmode="layer"
     id="layer1"
     transform="translate(-79.872223,-283.19272)">
    <path
       inkscape:connector-curvature="0"
       id="path2998"
       style="font-size:40px;font-style:normal;font-variant:normal;font-weight:normal;font-stretch:normal;line-height:125%;letter-spacing:0px;word-spacing:0px;fill:#000000;fill-opacity:1;stroke:none;font-family:Dessau-Bold;-inkscape-font-specification:Dessau-Bold"
       d="m 92.711578,312.36261 14.760742,0 c -3e-5,2.98667 -0.2401,5.26694 -0.72021,6.84082 -0.82685,2.74659 -2.46036,4.9998 -4.90052,6.75964 -2.440203,1.75985 -5.126765,2.63977 -8.059689,2.63977 -3.866385,0 -7.152922,-1.34663 -9.85962,-4.03991 -2.706708,-2.69327 -4.060059,-5.96008 -4.060058,-9.80042 -1e-6,-3.8395 1.35335,-7.09938 4.060058,-9.77966 2.706698,-2.68023 6.006663,-4.02036 9.899903,-4.02039 4.133281,3e-5 7.653376,1.48034 10.560306,4.44092 l -4.600834,4.27979 c -1.759459,-1.68048 -3.706071,-2.52073 -5.839843,-2.52076 -2.080091,3e-5 -3.819999,0.72675 -5.219727,2.18018 -1.399748,1.45347 -2.099617,3.27353 -2.099609,5.46021 -8e-6,2.18669 0.686637,4.00005 2.059936,5.44006 1.37328,1.44003 3.112984,2.16004 5.219117,2.16003 1.680484,10e-6 3.133933,-0.47342 4.360351,-1.42029 1.226379,-0.94685 1.946189,-2.14008 2.159419,-3.57971 l -7.719722,0 z" />
    <path
       inkscape:connector-curvature="0"
       id="path3000"
       style="font-size:40px;font-style:normal;font-variant:normal;font-weight:normal;font-stretch:normal;line-height:125%;letter-spacing:0px;word-spacing:0px;fill:#000000;fill-opacity:1;stroke:none;font-family:Dessau-Bold;-inkscape-font-specification:Dessau-Bold"
       d="m 129.47916,328.08282 -5.88013,0 0,-8.28002 c -2e-5,-1.54703 -0.30641,-2.73355 -0.91919,-3.55957 -0.74708,-1.01399 -1.78712,-1.52099 -3.12012,-1.521 -1.09376,10e-6 -2.02068,0.39349 -2.78076,1.18042 -0.7601,0.78696 -1.14014,1.74033 -1.14014,2.86011 0,1.1198 0.37333,2.06645 1.12,2.83996 0.74665,0.77353 1.66686,1.16029 2.76062,1.16028 0.79996,1e-5 1.74641,-0.3601 2.83936,-1.08032 l 0,5.83984 c -1.03924,0.74707 -2.21234,1.12061 -3.51929,1.12061 -2.58709,0 -4.79391,-0.96009 -6.62049,-2.88025 -1.82658,-1.92016 -2.73986,-4.24011 -2.73986,-6.95984 0,-2.77343 0.9733,-5.12674 2.91992,-7.05994 1.94661,-1.93317 4.33349,-2.89976 7.16064,-2.89978 2.88003,2e-5 5.25328,0.97984 7.11975,2.93946 1.86644,1.95965 2.79967,4.44622 2.79969,7.45971 z" />
    <path
       inkscape:connector-curvature="0"
       id="path3002"
       style="font-size:40px;font-style:normal;font-variant:normal;font-weight:normal;font-stretch:normal;line-height:125%;letter-spacing:0px;word-spacing:0px;fill:#000000;fill-opacity:1;stroke:none;font-family:Dessau-Bold;-inkscape-font-specification:Dessau-Bold"
       d="m 139.2106,328.08282 -5.88013,0 0,-26.60034 5.88013,0 z" />
    <path
       inkscape:connector-curvature="0"
       id="path3004"
       style="font-size:40px;font-style:normal;font-variant:normal;font-weight:normal;font-stretch:normal;line-height:125%;letter-spacing:0px;word-spacing:0px;fill:#000000;fill-opacity:1;stroke:none;font-family:Dessau-Bold;-inkscape-font-specification:Dessau-Bold"
       d="m 148.8981,328.08282 -5.88013,0 0,-26.60034 5.88013,0 z" />
    <path
       inkscape:connector-curvature="0"
       id="path3006"
       style="font-size:40px;font-style:normal;font-variant:normal;font-weight:normal;font-stretch:normal;line-height:125%;letter-spacing:0px;word-spacing:0px;fill:#000000;fill-opacity:1;stroke:none;font-family:Dessau-Bold;-inkscape-font-specification:Dessau-Bold"
       d="m 167.78482,319.72223 3.64014,3.20068 c -1.14667,1.7334 -2.30674,3.00009 -3.48023,3.80005 -1.86687,1.28011 -3.93352,1.92017 -6.19995,1.92017 -2.77344,0 -5.13347,-0.96009 -7.08008,-2.88025 -1.94661,-1.92016 -2.91992,-4.24011 -2.91992,-6.95984 0,-2.80028 0.9668,-5.16031 2.90039,-7.08008 1.93359,-1.91974 4.31355,-2.87962 7.13989,-2.87964 3.22672,2e-5 5.76008,1.21299 7.6001,3.63892 0.39956,0.53387 0.91958,1.50758 1.56006,2.92114 l -10.15991,6.11939 -2.0398,-3.59986 5.43946,-3.36059 c -0.69338,-0.66649 -1.53322,-0.99974 -2.51953,-0.99976 -1.20037,2e-5 -2.20053,0.4533 -3.00049,1.35986 -0.79998,0.90659 -1.19996,2.04022 -1.19995,3.40088 -1e-5,1.46648 0.44656,2.68637 1.33972,3.65967 0.89314,0.97331 2.02005,1.45997 3.38074,1.45996 2.47964,1e-5 4.34609,-1.24023 5.59936,-3.7207 z" />
    <path
       inkscape:connector-curvature="0"
       id="path3008"
       style="font-size:40px;font-style:normal;font-variant:normal;font-weight:normal;font-stretch:normal;line-height:125%;letter-spacing:0px;word-spacing:0px;fill:#000000;fill-opacity:1;stroke:none;font-family:Dessau-Bold;-inkscape-font-specification:Dessau-Bold"
       d="m 179.75504,328.08282 -5.88013,0 0,-18.59985 5.63965,0 0,2.67944 c 0.7202,-1.14663 1.46707,-1.94659 2.2406,-2.3999 0.77351,-0.45327 1.74661,-0.67991 2.91931,-0.67993 l 0.60058,0 0,5.52002 c -0.18637,-0.0268 -0.41301,-0.0403 -0.67993,-0.0403 -1.78712,1e-5 -3.09367,0.60019 -3.91967,1.80053 -0.61362,0.87973 -0.92042,2.45322 -0.92041,4.72046 z" />
    <path
       inkscape:connector-curvature="0"
       id="path3010"
       style="font-size:40px;font-style:normal;font-variant:normal;font-weight:normal;font-stretch:normal;line-height:125%;letter-spacing:0px;word-spacing:0px;fill:#000000;fill-opacity:1;stroke:none;font-family:Dessau-Bold;-inkscape-font-specification:Dessau-Bold"
       d="m 193.35123,328.08282 -5.88013,0 0,-18.59985 5.88013,0 z m -2.88086,-28.03955 c 0.98713,3e-5 1.84061,0.36665 2.56042,1.09986 0.7198,0.73326 1.07971,1.60647 1.07971,2.61963 0,1.0132 -0.36662,1.8799 -1.09985,2.60009 -0.73324,0.72024 -1.60645,1.08035 -2.61963,1.08033 -0.98714,2e-5 -1.84733,-0.3668 -2.58056,-1.10047 -0.73324,-0.73362 -1.09986,-1.5936 -1.09986,-2.57995 0,-1.04002 0.36011,-1.91994 1.08032,-2.63977 0.72022,-0.71978 1.61336,-1.07969 2.67945,-1.07972 z" />
    <path
       inkscape:connector-curvature="0"
       id="path3012"
       style="font-size:40px;font-style:normal;font-variant:normal;font-weight:normal;font-stretch:normal;line-height:125%;letter-spacing:0px;word-spacing:0px;fill:#000000;fill-opacity:1;stroke:none;font-family:Dessau-Bold;-inkscape-font-specification:Dessau-Bold"
       d="m 223.75772,322.48224 0,5.60058 -3.75976,0 c -4.37339,0 -7.78647,-1.41316 -10.23926,-4.2395 -2.32015,-2.66682 -3.48023,-5.65347 -3.48023,-8.95996 0,-3.92007 1.44002,-7.24037 4.32007,-9.96094 2.42675,-2.29326 5.4134,-3.43991 8.95996,-3.43994 l 4.19922,0 0,5.60059 -2.51953,0 c -4.16017,2e-5 -6.6801,1.71999 -7.55981,5.15991 l 10.07934,0 0,5.04028 -10.07934,0 c 0.29296,1.49334 1.05284,2.73317 2.27966,3.71949 1.22679,0.98633 2.92011,1.47949 5.07995,1.47949 z" />
    <path
       inkscape:connector-curvature="0"
       id="path3014"
       style="font-size:40px;font-style:normal;font-variant:normal;font-weight:normal;font-stretch:normal;line-height:125%;letter-spacing:0px;word-spacing:0px;fill:#000000;fill-opacity:1;stroke:none;font-family:Dessau-Bold;-inkscape-font-specification:Dessau-Bold"
       d="m 233.03873,328.08282 -5.88013,0 0,-26.60034 5.88013,0 z" />
    <path
       inkscape:connector-curvature="0"
       id="path3016"
       style="font-size:40px;font-style:normal;font-variant:normal;font-weight:normal;font-stretch:normal;line-height:125%;letter-spacing:0px;word-spacing:0px;fill:#000000;fill-opacity:1;stroke:none;font-family:Dessau-Bold;-inkscape-font-specification:Dessau-Bold"
       d="m 236.48599,328.08282 0,-4.95971 5,0 c 1.11979,0 1.77286,-0.0134 1.95923,-0.0403 1.01399,-0.1066 1.52099,-0.39997 1.521,-0.88012 -1e-5,-0.31982 -0.18678,-0.61299 -0.56031,-0.87952 -0.37354,-0.26651 -1.18693,-0.6667 -2.44018,-1.20056 l -1.04004,-0.43945 c -1.7334,-0.74706 -2.92684,-1.49393 -3.58032,-2.2406 -0.65349,-0.74666 -0.98023,-1.73319 -0.98023,-2.9596 0,-1.59992 0.57332,-2.88003 1.71997,-3.84033 1.014,-0.85285 2.54761,-1.27928 4.60083,-1.2793 l 7.08008,0 0,4.95972 -4.52026,0 c -1.06691,10e-6 -1.66708,0.0134 -1.80054,0.0403 -0.87973,0.0798 -1.31959,0.31943 -1.31958,0.719 -1e-5,0.32065 0.43985,0.69418 1.31958,1.1206 0.53385,0.21323 1.08072,0.43987 1.64063,0.67993 l 0.99975,0.43946 c 3.06639,1.36068 4.5996,3.22754 4.59961,5.60058 -1e-5,1.7863 -0.69337,3.17302 -2.08008,4.16016 -0.93263,0.6665 -2.49228,0.99975 -4.67895,0.99975 z" />
    <path
       inkscape:connector-curvature="0"
       id="path3018"
       style="font-size:40px;font-style:normal;font-variant:normal;font-weight:normal;font-stretch:normal;line-height:125%;letter-spacing:0px;word-spacing:0px;fill:#000000;fill-opacity:1;stroke:none;font-family:Dessau-Bold;-inkscape-font-specification:Dessau-Bold"
       d="m 272.83853,328.08282 -5.88013,0 0,-8.28002 c -10e-6,-1.54703 -0.30641,-2.73355 -0.91918,-3.55957 -0.74709,-1.01399 -1.78713,-1.52099 -3.12012,-1.521 -1.09376,10e-6 -2.02068,0.39349 -2.78076,1.18042 -0.7601,0.78696 -1.14015,1.74033 -1.14014,2.86011 -10e-6,1.1198 0.37332,2.06645 1.11999,2.83996 0.74666,0.77353 1.66686,1.16029 2.76062,1.16028 0.79996,1e-5 1.74641,-0.3601 2.83936,-1.08032 l 0,5.83984 c -1.03924,0.74707 -2.21233,1.12061 -3.51929,1.12061 -2.58708,0 -4.79391,-0.96009 -6.62048,-2.88025 -1.82658,-1.92016 -2.73987,-4.24011 -2.73987,-6.95984 0,-2.77343 0.97331,-5.12674 2.91992,-7.05994 1.94661,-1.93317 4.33349,-2.89976 7.16065,-2.89978 2.88003,2e-5 5.25328,0.97984 7.11975,2.93946 1.86643,1.95965 2.79966,4.44622 2.79968,7.45971 z" />
    <g
       transform="matrix(0.15748603,0,0,0.15748603,262.80682,230.8823)"
       id="g3813">
      <rect
         y="542.36218"
         x="230"
         height="20.203051"
         width="200"
         id="rect3811"
         style="fill:#000000;stroke:#000000;stroke-width:0;stroke-linecap:square;stroke-miterlimit:4;stroke-opacity:1;stroke-dasharray:none" />
      <rect
         transform="matrix(0,1,-1,0,0,0)"
         y="-430"
         x="332.36218"
         height="20.203051"
         width="200"
         id="rect3811-1"
         style="fill:#000000;stroke:#000000;stroke-width:0;stroke-linecap:square;stroke-miterlimit:4;stroke-opacity:1;stroke-dasharray:none" />
      <rect
         y="332.15912"
         x="200"
         height="20.203051"
         width="200"
         id="rect3811-7"
         style="fill:#000000;stroke:#000000;stroke-width:0;stroke-linecap:square;stroke-miterlimit:4;stroke-opacity:1;stroke-dasharray:none" />
      <rect
         transform="matrix(0,1,-1,0,0,0)"
         y="-220"
         x="362.36218"
         height="20.203051"
         width="200"
         id="rect3811-1-4"
         style="fill:#000000;stroke:#000000;stroke-width:0;stroke-linecap:square;stroke-miterlimit:4;stroke-opacity:1;stroke-dasharray:none" />
      <g
         transform="matrix(1.0970997,0,0,0.84848488,-31.557402,65.751835)"
         id="text2995"
         style="font-size:273.76644897px;font-style:normal;font-variant:normal;font-weight:bold;font-stretch:normal;line-height:125%;letter-spacing:0px;word-spacing:0px;fill:#000000;fill-opacity:1;stroke:none;font-family:Otari-Bold-Limited;-inkscape-font-specification:Otari-Bold-Limited Bold">
        <path
           sodipodi:nodetypes="ccccccccccccccc"
           inkscape:connector-curvature="0"
           id="path3000-1"
           d="m 319.49141,532.36218 30.11893,-0.10715 0,-42.42857 10.93793,0 0,-30.64285 c -4.41392,0 -7.20818,0 -10.93793,0 l 0,-31.82143 -30.11893,0 0,31.82143 -15.45578,0 27.62969,-91.82143 -30.43478,0 -37.30065,122.46428 55.56152,0 z" />
      </g>
      <g
         id="text3794"
         style="font-size:50.08205032px;font-style:normal;font-variant:normal;font-weight:bold;font-stretch:normal;line-height:125%;letter-spacing:0px;word-spacing:0px;fill:#000000;fill-opacity:1;stroke:none;font-family:Verdana Pro;-inkscape-font-specification:Verdana Pro Bold"
         transform="matrix(1.0371141,0,0,1.2520513,-57.769053,0)">
        <path
           inkscape:connector-curvature="0"
           id="path3801"
           d="m 282.78753,497.0741 -11.51789,0 -10.88209,-14.57466 -2.20087,2.6655 0,11.90916 -9.39039,0 0,-36.4122 9.39039,0 0,16.48208 13.00959,-16.48208 10.88209,0 -14.2323,16.8489 z" />
        <path
           inkscape:connector-curvature="0"
           id="path3803"
           d="m 321.08269,497.0741 -9.70829,0 -2.51877,-7.3607 -13.49868,0 -2.51878,7.3607 -9.46374,0 13.44977,-36.4122 10.80872,0 z m -14.5013,-14.03667 -4.4751,-13.05851 -4.47511,13.05851 z" />
        <path
           inkscape:connector-curvature="0"
           id="path3805"
           d="m 359.47567,497.0741 -9.04803,0 -15.45501,-24.99212 0,24.99212 -8.60785,0 0,-36.4122 11.22445,0 13.27859,20.85937 0,-20.85937 8.60785,0 z" />
        <path
           inkscape:connector-curvature="0"
           id="path3807"
           d="m 397.3062,467.70469 -11.37117,0 0,29.36941 -9.39038,0 0,-29.36941 -11.37117,0 0,-7.04279 32.13272,0 z" />
        <path
           sodipodi:nodetypes="ccccccccccccc"
           inkscape:connector-curvature="0"
           id="path3809"
           d="m 429.2922,497.0741 -26.33709,0 0,-36.4122 26.33709,0 0,7.04279 -16.99562,0 0,6.28471 9.98763,0 0,7.04279 -9.98763,0 0,8.99912 16.99562,0 z" />
        <path
           inkscape:connector-curvature="0"
           id="path3811"
           d="m 470.30177,497.0741 -9.04802,0 -15.45501,-24.99212 0,24.99212 -8.60785,0 0,-36.4122 11.22444,0 13.27859,20.85937 0,-20.85937 8.60785,0 z" />
      </g>
    </g>
  </g>
</svg>
